<?xml version="1.0" encoding="utf-8"?>
<!-- Generator: Adobe Illustrator 17.0.2, SVG Export Plug-In . SVG Version: 6.00 Build 0)  -->
<!DOCTYPE svg PUBLIC "-//W3C//DTD SVG 1.1//EN" "http://www.w3.org/Graphics/SVG/1.1/DTD/svg11.dtd">
<svg version="1.1" id="Layer_1" xmlns="http://www.w3.org/2000/svg" xmlns:xlink="http://www.w3.org/1999/xlink" x="0px" y="0px"
	 width="800px" height="800px" viewBox="0 0 800 800" enable-background="new 0 0 800 800" xml:space="preserve">
<g id="Layer_1_copy_4">
	<circle fill="#00FF00" cx="288.376" cy="504.73" r="243.324"/>
	<circle fill="#FF0000" cx="406.545" cy="293.27" r="243.324"/>
	<circle fill="#0000FF" cx="524.714" cy="504.73" r="243.324"/>
</g>
<g id="Layer_1_copy_2">
	<path fill="#00FFFF" d="M406.545,291.995c-74.647,41.554-125.157,121.24-125.157,212.735s50.509,171.18,125.157,212.735
		C481.192,675.912,531.7,596.226,531.7,504.73C531.702,413.235,481.192,333.548,406.545,291.995z"/>
</g>
<g id="Layer_1_copy">
	<path fill="#FF00FF" d="M281.424,501.989c36.562,21.965,79.363,34.605,125.121,34.605c133.469,0,241.819-107.464,243.29-240.584
		c-36.562-21.965-79.363-34.605-125.121-34.605C391.247,261.405,282.897,368.87,281.424,501.989z"/>
</g>
<g id="Layer_1_1_">
	<path fill="#FFFF00" d="M163.255,296.011c1.472,133.119,109.823,240.584,243.29,240.584c45.758,0,88.56-12.641,125.121-34.605
		c-1.472-133.121-109.823-240.584-243.29-240.584C242.618,261.405,199.818,274.046,163.255,296.011z"/>
</g>
<g id="Layer_1_copy_3">
	<path fill="#FFFFFF" d="M281.424,501.989c36.562,21.965,79.363,34.605,125.121,34.605s88.56-12.641,125.121-34.605
		c-0.998-90.342-51.222-168.856-125.121-209.994C332.646,333.133,282.424,411.647,281.424,501.989z"/>
</g>
</svg>
