<?xml version="1.0" encoding="utf-8"?>
<!-- Generator: Adobe Illustrator 17.0.2, SVG Export Plug-In . SVG Version: 6.00 Build 0)  -->
<!DOCTYPE svg PUBLIC "-//W3C//DTD SVG 1.1//EN" "http://www.w3.org/Graphics/SVG/1.1/DTD/svg11.dtd">
<svg version="1.1" id="RGB" xmlns="http://www.w3.org/2000/svg" xmlns:xlink="http://www.w3.org/1999/xlink" x="0px" y="0px"
	 width="800px" height="800px" viewBox="0 0 800 800" enable-background="new 0 0 800 800" xml:space="preserve">
<g id="Primary">
	<path fill="#00FF00" d="M562.525,346.962c18.452,16.465,29.49,49.76,24.529,73.987l-41.177,201.113
		c-4.96,24.227-28.253,50.33-51.762,58.005l-195.147,63.716c-23.509,7.676-57.84,0.484-76.291-15.982L68.357,590.089
		c-18.451-16.465-29.49-49.76-24.529-73.987L85.004,314.99c4.96-24.227,28.253-50.33,51.762-58.005l195.147-63.716
		c23.509-7.676,57.84-0.484,76.291,15.982L562.525,346.962z"/>
	<path fill="#FF0000" d="M619.348,500.404c-7.829,23.458-34.047,46.759-58.262,51.781l-201.008,41.687
		c-24.215,5.022-57.399-6.054-73.744-24.613L150.659,415.201c-16.344-18.559-23.311-52.936-15.482-76.394l65.482-196.193
		c7.829-23.458,34.047-46.759,58.262-51.781l201.008-41.687c24.215-5.022,57.399,6.054,73.744,24.613l135.675,154.059
		c16.344,18.559,23.311,52.936,15.482,76.394L619.348,500.404z"/>
	<path fill="#0000FF" d="M704.058,282.954c22.195,10.907,41.766,40.015,43.493,64.685l14.33,204.784
		c1.726,24.67-13.703,56.067-34.288,69.773L556.717,735.965c-20.585,13.705-55.586,15.995-77.781,5.088L293.308,649.83
		c-22.195-10.907-41.766-40.015-43.493-64.685l-14.33-204.784c-1.726-24.67,13.703-56.067,34.288-69.773l170.876-113.769
		c20.585-13.705,55.586-15.995,77.781-5.088L704.058,282.954z"/>
</g>
<g id="B_x2B_G">
	<path fill="#00FFFF" d="M562.952,346.639L414.096,213.804l-144.725,96.358c-20.643,13.744-36.116,45.231-34.385,69.97
		l14.37,205.364c1.731,24.74,21.358,53.93,43.616,64.868l117.458,57.722l83.92-27.4c23.575-7.697,46.934-33.874,51.909-58.17
		l41.293-201.683C592.526,396.539,581.456,363.151,562.952,346.639z"/>
</g>
<g id="R_x2B_B">
	<path fill="#FF00FF" d="M619.696,500.648l65.626-196.626c2.915-8.734,3.78-18.978,2.88-29.358l-169.647-83.369
		c-22.244-10.931-57.322-8.637-77.953,5.099l-171.253,114.02c-20.63,13.736-36.094,45.203-34.364,69.927l9.992,142.794l40.97,46.521
		c16.38,18.6,49.638,29.7,73.906,24.667l201.452-41.779C585.573,547.51,611.849,524.157,619.696,500.648z"/>
</g>
<g id="G_x2B_R">
	<path fill="#FFFF00" d="M562.969,346.862l-154.66-138.013c-18.492-16.502-52.898-23.709-76.458-16.017l-166.645,54.41
		l-30.521,91.447c-7.846,23.509-0.864,57.962,15.516,76.561l135.973,154.396c16.38,18.6,49.637,29.7,73.905,24.667l200.505-41.583
		l26.969-131.72C592.523,396.73,581.461,363.363,562.969,346.862z"/>
</g>
<g id="Center">
	<path fill="#FFFFFF" d="M563.085,346.747L414.098,213.796l-144.852,96.443c-20.661,13.756-36.148,45.271-34.416,70.032
		l10.007,143.009l41.031,46.591c16.405,18.628,49.713,29.745,74.017,24.704l200.81-41.646l27.01-131.92
		C592.684,396.691,581.605,363.273,563.085,346.747z"/>
</g>
</svg>
