<?xml version="1.0" encoding="utf-8"?>
<!-- Generator: Adobe Illustrator 17.0.2, SVG Export Plug-In . SVG Version: 6.00 Build 0)  -->
<!DOCTYPE svg PUBLIC "-//W3C//DTD SVG 1.1//EN" "http://www.w3.org/Graphics/SVG/1.1/DTD/svg11.dtd">
<svg version="1.1" id="Layer_1" xmlns="http://www.w3.org/2000/svg" xmlns:xlink="http://www.w3.org/1999/xlink" x="0px" y="0px"
	 width="400px" height="400px" viewBox="0 0 400 400" enable-background="new 0 0 400 400" xml:space="preserve">
<g opacity="0.8">
	<g>
		<path fill="#FFFFFF" d="M223.312,276.5H216.5v26h7.524c4.637,0,8.188-0.92,10.652-3.13c2.465-2.21,3.697-5.443,3.697-9.75
			C238.374,280.856,233.354,276.5,223.312,276.5z"/>
	</g>
	<g>
		<path fill="#FFFFFF" d="M176.195,275.648c-3.797,0-7.003,1.35-9.613,4.053s-3.915,5.978-3.915,9.831s1.305,7.128,3.915,9.832
			s5.816,4.053,9.613,4.053c3.796,0,7.001-1.349,9.611-4.053c2.611-2.703,3.917-5.978,3.917-9.832s-1.306-7.128-3.917-9.831
			C183.196,276.998,179.99,275.648,176.195,275.648z"/>
	</g>
	<g>
		<path fill="#FFFFFF" d="M364.651,92.423L210.352,2.919c-2.847-1.652-6.599-2.477-10.351-2.477s-7.504,0.826-10.35,2.477
			L35.352,92.423c-5.693,3.303-10.351,12.046-10.351,19.43v176.176c0,7.385,4.658,16.127,10.351,19.43l154.299,89.504
			c2.846,1.652,6.598,2.477,10.35,2.477s7.504-0.826,10.351-2.477l154.299-89.504c5.693-3.303,10.35-12.046,10.35-19.43V111.853
			C375.001,104.469,370.343,95.726,364.651,92.423z M229.948,81.128h26.894v6.079h-20.43v10.134h18.349v5.75h-18.349v10.243h21.087
			v6.079h-27.55V81.128z M181.516,81.128h6.462v16.596h19.006V81.128h6.462v38.285h-6.462v-15.664h-19.006v15.664h-6.462V81.128z
			 M121.6,299.172c2.61,2.611,5.705,3.915,9.284,3.915c2.226,0,4.143-0.374,5.75-1.123c1.607-0.747,3.287-1.944,5.04-3.586
			l4.161,4.271c-4.052,4.491-8.973,6.737-14.76,6.737c-5.787,0-10.591-1.862-14.404-5.588c-3.816-3.723-5.723-8.434-5.723-14.131
			s1.944-10.443,5.832-14.24c3.888-3.798,8.799-5.696,14.734-5.696c5.933,0,10.889,2.191,14.87,6.573l-4.108,4.491
			c-1.825-1.753-3.551-2.975-5.174-3.67c-1.625-0.693-3.534-1.039-5.725-1.039c-3.87,0-7.12,1.251-9.749,3.75
			c-2.629,2.502-3.944,5.696-3.944,9.587C117.683,293.311,118.989,296.562,121.6,299.172z M148.024,241.998h-21.898v-38.6h-39.02
			v38.6H65.21v-98.114h21.896v40.985h39.02v-40.985h21.898V241.998z M138.942,87.042v-5.914h29.686v5.914h-11.611v32.371h-6.464
			V87.042H138.942z M190.544,303.663c-3.87,3.779-8.653,5.668-14.349,5.668c-5.696,0-10.481-1.889-14.351-5.668
			c-3.869-3.779-5.805-8.49-5.805-14.131s1.936-10.352,5.805-14.131c3.87-3.779,8.655-5.67,14.351-5.67
			c5.697,0,10.479,1.891,14.349,5.67c3.87,3.779,5.805,8.49,5.805,14.131S194.414,299.884,190.544,303.663z M166.551,241.998
			v-98.114h70.742v19.51h-48.846v20.212h43.933v18.669h-43.933v20.352h50.39v19.371H166.551z M239.526,303.746
			c-3.579,3.468-9.056,5.203-16.433,5.203h-12.705v-38.285h13.143c6.865,0,12.142,1.67,15.83,5.011
			c3.687,3.341,5.532,7.988,5.532,13.94S243.103,300.277,239.526,303.746z M286.643,308.948h-27.549v-38.285h26.893v6.079h-20.43
			v10.134h18.348v5.75h-18.348v10.243h21.087V308.948z M315.754,241.998l-20.915-32.284l-20.775,32.284h-26.388l32.987-50.251
			l-30.74-47.863h26.248l18.669,29.055l18.669-29.055h26.388l-30.599,47.303l33.124,50.811H315.754z"/>
	</g>
</g>
</svg>
