<?xml version="1.0" encoding="utf-8"?>
<!-- Generator: Adobe Illustrator 17.0.0, SVG Export Plug-In . SVG Version: 6.00 Build 0)  -->
<!DOCTYPE svg PUBLIC "-//W3C//DTD SVG 1.1//EN" "http://www.w3.org/Graphics/SVG/1.1/DTD/svg11.dtd">
<svg version="1.1" id="Layer_1" xmlns="http://www.w3.org/2000/svg" xmlns:xlink="http://www.w3.org/1999/xlink" x="0px" y="0px"
	 width="400px" height="400px" viewBox="0 0 400 400" enable-background="new 0 0 400 400" xml:space="preserve">
<g opacity="0.95">
	<path fill="#FFFFFF" d="M177.434,267.489c-3.927,0-7.241,1.395-9.94,4.19c-2.699,2.795-4.048,6.181-4.048,10.165
		s1.349,7.37,4.048,10.165c2.699,2.795,6.013,4.19,9.94,4.19c3.924,0,7.239-1.395,9.938-4.19c2.699-2.795,4.05-6.181,4.05-10.165
		s-1.351-7.37-4.05-10.165C184.672,268.884,181.358,267.489,177.434,267.489z"/>
	<path fill="#FFFFFF" d="M220.076,268.508h-6.683v27.127h7.419c4.794,0,8.466-1.142,11.014-3.427
		c2.548-2.285,3.822-5.654,3.822-10.108C235.648,273.038,230.458,268.508,220.076,268.508z"/>
	<path fill="#FFFFFF" d="M358.483,96.5L210.392,11c-5.716-3.3-15.069-3.3-20.785,0L41.517,96.5c-5.716,3.3-10.392,11.4-10.392,18
		v171c0,6.6,4.677,14.7,10.392,18l148.09,85.5c5.716,3.3,15.069,3.3,20.785,0l148.09-85.5c5.716-3.3,10.392-11.4,10.392-18v-171
		C368.875,107.9,364.198,99.8,358.483,96.5z M223.898,92.681h27.808v6.286h-21.124v10.478h18.972v5.945h-18.972v10.591h21.803v6.286
		h-28.486V92.681z M179.897,92.681h6.681v17.159h19.652V92.681h6.681v39.586h-6.681v-16.196h-19.652v16.196h-6.681V92.681z
		 M127.059,291.812c2.699,2.699,5.898,4.048,9.6,4.048c2.302,0,4.284-0.387,5.945-1.161c1.661-0.772,3.399-2.01,5.211-3.708
		l4.303,4.416c-4.19,4.643-9.278,6.966-15.262,6.966c-5.984,0-10.95-1.925-14.894-5.777c-3.946-3.85-5.918-8.721-5.918-14.611
		s2.01-10.797,6.03-14.724c4.02-3.927,9.098-5.89,15.234-5.89c6.135,0,11.259,2.265,15.375,6.796l-4.248,4.643
		c-1.887-1.812-3.671-3.076-5.35-3.795c-1.68-0.717-3.654-1.074-5.92-1.074c-4.001,0-7.362,1.293-10.08,3.878
		c-2.718,2.587-4.078,5.89-4.078,9.912C123.009,285.752,124.36,289.113,127.059,291.812z M153.189,239.036h-19.369v-34.142H99.305
		v34.142H79.938v-86.784h19.367v36.252h34.514v-36.252h19.369V239.036z M141.953,98.796v-6.115h30.694v6.115h-12.005v33.47h-6.683
		v-33.47H141.953z M192.27,296.456c-4.001,3.908-8.947,5.86-14.837,5.86s-10.838-1.953-14.839-5.86
		c-4.001-3.907-6.003-8.779-6.003-14.611s2.002-10.704,6.003-14.611c4.001-3.907,8.949-5.862,14.839-5.862
		s10.836,1.955,14.837,5.862c4.001,3.908,6.003,8.779,6.003,14.611S196.271,292.548,192.27,296.456z M169.576,239.036v-86.784
		h62.573v17.257h-43.206v17.878h38.86V203.9h-38.86v18.002h44.571v17.134H169.576z M236.839,296.541
		c-3.701,3.586-9.364,5.379-16.991,5.379h-13.137v-39.585h13.59c7.098,0,12.554,1.727,16.368,5.182
		c3.812,3.454,5.72,8.26,5.72,14.413S240.538,292.954,236.839,296.541z M279.482,301.92h-28.484v-39.585h27.806v6.286h-21.124
		v10.478h18.972v5.945h-18.972v10.591h21.803V301.92z M301.55,239.036l-18.499-28.556l-18.376,28.556h-23.341l29.178-44.448
		l-27.191-42.336h23.217l16.513,25.7l16.513-25.7h23.341l-27.065,41.84l29.299,44.944H301.55z"/>
</g>
</svg>
