<?xml version="1.0" encoding="utf-8"?>
<!-- Generator: Adobe Illustrator 17.0.2, SVG Export Plug-In . SVG Version: 6.00 Build 0)  -->
<!DOCTYPE svg PUBLIC "-//W3C//DTD SVG 1.1//EN" "http://www.w3.org/Graphics/SVG/1.1/DTD/svg11.dtd">
<svg version="1.1" id="Layer_1" xmlns="http://www.w3.org/2000/svg" xmlns:xlink="http://www.w3.org/1999/xlink" x="0px" y="0px"
	 width="30px" height="52px" viewBox="0 0 30 52" enable-background="new 0 0 30 52" xml:space="preserve">
<path opacity="0.06" enable-background="new    " d="M30,0h-0.024L16,8.088V0h-1v8.469L0.43,0H0v52h0.43L15,43.559V52h1v-8.169
	l14,8.083v-0.627l-14.201-8.199L30,34.889v-0.033V34.23L15.746,26L30,17.77v-0.033V17.11L15.759,8.889L30,0.651V0z M16,26.774
	l13.486,7.786L16,42.345V26.774z M1,15V0.994l13.66,7.887L1,16.768V15z M1,19v-0.887L14.66,26L1,33.887V19z M1,51.006V35.171
	l13.713,7.917L1,51.006z M15,26.43v16.197L0.973,34.529L15,26.43L15,26.43z M15,25.57L1,17.487v-0.092l14-8.083l0,0V25.57L15,25.57z
	 M16,9.655l13.486,7.786L16,25.226V9.655z"/>
</svg>
